<svg width="32" height="32" viewBox="0 0 32 32" fill="none" xmlns="http://www.w3.org/2000/svg">
<path d="M21.5867 2.66675H10.4133C5.55999 2.66675 2.66666 5.56008 2.66666 10.4134V21.5734C2.66666 26.4401 5.55999 29.3334 10.4133 29.3334H21.5733C26.4267 29.3334 29.32 26.4401 29.32 21.5867V10.4134C29.3333 5.56008 26.44 2.66675 21.5867 2.66675ZM22.5067 15.3734C22.5067 15.8934 22.0933 16.3067 21.5733 16.3067C21.0533 16.3067 20.64 15.8934 20.64 15.3734V15.1334L17.0133 18.7601C16.8133 18.9601 16.5467 19.0534 16.2667 19.0267C15.9867 19.0001 15.7333 18.8534 15.5867 18.6134L14.2267 16.5867L11.0533 19.7601C10.8667 19.9467 10.64 20.0267 10.4 20.0267C10.16 20.0267 9.91999 19.9334 9.74666 19.7601C9.38666 19.4001 9.38666 18.8134 9.74666 18.4401L13.72 14.4667C13.92 14.2667 14.1867 14.1734 14.4667 14.2001C14.7467 14.2267 15 14.3734 15.1467 14.6134L16.5067 16.6401L19.32 13.8267H19.08C18.56 13.8267 18.1467 13.4134 18.1467 12.8934C18.1467 12.3734 18.56 11.9601 19.08 11.9601H21.56C21.68 11.9601 21.8 11.9867 21.92 12.0267C22.1467 12.1201 22.3333 12.3067 22.4267 12.5334C22.48 12.6534 22.4933 12.7734 22.4933 12.8934V15.3734H22.5067Z" fill="white"/>
</svg>
