<svg width="50" height="50" viewBox="0 0 50 50" fill="none" xmlns="http://www.w3.org/2000/svg">
<rect width="50" height="50" rx="25" fill="#0A0A0A"/>
<path d="M31.6667 11.6667H18.3334C14.6534 11.6667 11.6667 14.6401 11.6667 18.3067V26.2801V27.6134C11.6667 31.2801 14.6534 34.2534 18.3334 34.2534H20.3334C20.6934 34.2534 21.1734 34.4934 21.4 34.7867L23.4 37.4401C24.28 38.6134 25.72 38.6134 26.6 37.4401L28.6 34.7867C28.8534 34.4534 29.2534 34.2534 29.6667 34.2534H31.6667C35.3467 34.2534 38.3334 31.2801 38.3334 27.6134V18.3067C38.3334 14.6401 35.3467 11.6667 31.6667 11.6667ZM19.6667 25.0001C18.92 25.0001 18.3334 24.4001 18.3334 23.6667C18.3334 22.9334 18.9334 22.3334 19.6667 22.3334C20.4 22.3334 21 22.9334 21 23.6667C21 24.4001 20.4134 25.0001 19.6667 25.0001ZM25 25.0001C24.2534 25.0001 23.6667 24.4001 23.6667 23.6667C23.6667 22.9334 24.2667 22.3334 25 22.3334C25.7334 22.3334 26.3334 22.9334 26.3334 23.6667C26.3334 24.4001 25.7467 25.0001 25 25.0001ZM30.3334 25.0001C29.5867 25.0001 29 24.4001 29 23.6667C29 22.9334 29.6 22.3334 30.3334 22.3334C31.0667 22.3334 31.6667 22.9334 31.6667 23.6667C31.6667 24.4001 31.08 25.0001 30.3334 25.0001Z" fill="white"/>
</svg>
