<svg width="32" height="32" viewBox="0 0 32 32" fill="none" xmlns="http://www.w3.org/2000/svg">
<path d="M19.1333 2.66663H12.8667C11.48 2.66663 10.3467 3.78663 10.3467 5.17329V6.42663C10.3467 7.81329 11.4667 8.93329 12.8533 8.93329H19.1333C20.52 8.93329 21.64 7.81329 21.64 6.42663V5.17329C21.6533 3.78663 20.52 2.66663 19.1333 2.66663Z" fill="#C0A355"/>
<path d="M22.9867 6.42664C22.9867 8.54664 21.2533 10.28 19.1333 10.28H12.8667C10.7467 10.28 9.01332 8.54664 9.01332 6.42664C9.01332 5.67997 8.21332 5.21331 7.54666 5.55997C5.66666 6.55997 4.38666 8.54664 4.38666 10.8266V23.3733C4.38666 26.6533 7.06666 29.3333 10.3467 29.3333H21.6533C24.9333 29.3333 27.6133 26.6533 27.6133 23.3733V10.8266C27.6133 8.54664 26.3333 6.55997 24.4533 5.55997C23.7867 5.21331 22.9867 5.67997 22.9867 6.42664ZM20.4533 16.9733L15.12 22.3066C14.92 22.5066 14.6667 22.6 14.4133 22.6C14.16 22.6 13.9067 22.5066 13.7067 22.3066L11.7067 20.3066C11.32 19.92 11.32 19.28 11.7067 18.8933C12.0933 18.5066 12.7333 18.5066 13.12 18.8933L14.4133 20.1866L19.04 15.56C19.4267 15.1733 20.0667 15.1733 20.4533 15.56C20.84 15.9466 20.84 16.5866 20.4533 16.9733Z" fill="#C0A355"/>
</svg>
