<svg width="32" height="32" viewBox="0 0 32 32" fill="none" xmlns="http://www.w3.org/2000/svg">
<path d="M21.5867 2.66663H10.4133C5.56 2.66663 2.66667 5.55996 2.66667 10.4133V21.5733C2.66667 26.44 5.56 29.3333 10.4133 29.3333H21.5733C26.4267 29.3333 29.32 26.44 29.32 21.5866V10.4133C29.3333 5.55996 26.44 2.66663 21.5867 2.66663ZM10.1733 24.2C10.1733 24.7466 9.72 25.2 9.17333 25.2C8.62667 25.2 8.17333 24.7466 8.17333 24.2V21.44C8.17333 20.8933 8.62667 20.44 9.17333 20.44C9.72 20.44 10.1733 20.8933 10.1733 21.44V24.2ZM17 24.2C17 24.7466 16.5467 25.2 16 25.2C15.4533 25.2 15 24.7466 15 24.2V18.6666C15 18.12 15.4533 17.6666 16 17.6666C16.5467 17.6666 17 18.12 17 18.6666V24.2ZM23.8267 24.2C23.8267 24.7466 23.3733 25.2 22.8267 25.2C22.28 25.2 21.8267 24.7466 21.8267 24.2V15.9066C21.8267 15.36 22.28 14.9066 22.8267 14.9066C23.3733 14.9066 23.8267 15.36 23.8267 15.9066V24.2ZM23.8267 11.6933C23.8267 12.24 23.3733 12.6933 22.8267 12.6933C22.28 12.6933 21.8267 12.24 21.8267 11.6933V10.4C18.4267 13.8933 14.1733 16.36 9.41333 17.5466C9.33333 17.5733 9.25333 17.5733 9.17333 17.5733C8.72 17.5733 8.32 17.2666 8.2 16.8133C8.06667 16.28 8.38667 15.7333 8.93333 15.6C13.4267 14.48 17.4267 12.12 20.6 8.78663H18.9333C18.3867 8.78663 17.9333 8.33329 17.9333 7.78663C17.9333 7.23996 18.3867 6.78663 18.9333 6.78663H22.84C22.8933 6.78663 22.9333 6.81329 22.9867 6.81329C23.0533 6.82663 23.12 6.82663 23.1867 6.85329C23.2533 6.87996 23.3067 6.91996 23.3733 6.95996C23.4133 6.98663 23.4533 6.99996 23.4933 7.02663C23.5067 7.03996 23.5067 7.05329 23.52 7.05329C23.5733 7.10663 23.6133 7.15996 23.6533 7.21329C23.6933 7.26663 23.7333 7.30663 23.7467 7.35996C23.7733 7.41329 23.7733 7.46663 23.7867 7.53329C23.8 7.59996 23.8267 7.66663 23.8267 7.74663C23.8267 7.75996 23.84 7.77329 23.84 7.78663V11.6933H23.8267Z" fill="#C0A355"/>
</svg>
