<svg width="32" height="32" viewBox="0 0 32 32" fill="none" xmlns="http://www.w3.org/2000/svg">
<path d="M6.66668 20C5.41334 20 4.25334 20.44 3.33334 21.1733C2.10668 22.1467 1.33334 23.6533 1.33334 25.3333C1.33334 26.3333 1.61334 27.28 2.10668 28.08C3.02668 29.6267 4.72001 30.6667 6.66668 30.6667C8.01334 30.6667 9.24001 30.1733 10.1733 29.3333C10.5867 28.9867 10.9467 28.56 11.2267 28.08C11.72 27.28 12 26.3333 12 25.3333C12 22.3867 9.61334 20 6.66668 20ZM9.42668 24.76L6.58668 27.3867C6.40001 27.56 6.14668 27.6533 5.90668 27.6533C5.65334 27.6533 5.40001 27.56 5.20001 27.36L3.88001 26.04C3.49334 25.6533 3.49334 25.0133 3.88001 24.6267C4.26668 24.24 4.90668 24.24 5.29334 24.6267L5.93334 25.2667L8.06668 23.2933C8.46668 22.92 9.10668 22.9467 9.48001 23.3467C9.85334 23.7467 9.82668 24.3867 9.42668 24.76Z" fill="#C0A355"/>
<path d="M19.8 5.26661V10.3333H17.8V5.26661C17.8 4.90661 17.48 4.73328 17.2667 4.73328C17.2 4.73328 17.1333 4.74661 17.0667 4.77328L6.49334 8.75994C5.78668 9.02661 5.33334 9.69328 5.33334 10.4533V11.3466C4.12001 12.2533 3.33334 13.7066 3.33334 15.3466V10.4533C3.33334 8.86661 4.30668 7.45328 5.78668 6.89328L16.3733 2.89328C16.6667 2.78661 16.9733 2.73328 17.2667 2.73328C18.6 2.73328 19.8 3.81328 19.8 5.26661Z" fill="#C0A355"/>
<path d="M28.6667 19.3333V20.6666C28.6667 21.0266 28.3867 21.32 28.0133 21.3333H26.0667C25.36 21.3333 24.72 20.8133 24.6667 20.12C24.6267 19.7066 24.7867 19.32 25.0533 19.0533C25.2933 18.8 25.6267 18.6666 25.9867 18.6666H28C28.3867 18.68 28.6667 18.9733 28.6667 19.3333Z" fill="#C0A355"/>
<path d="M25.9733 17.2667H27.3333C28.0667 17.2667 28.6667 16.6667 28.6667 15.9334V15.3467C28.6667 12.5867 26.4133 10.3334 23.6533 10.3334H8.34668C7.21334 10.3334 6.17334 10.7067 5.33334 11.3467C4.12001 12.2534 3.33334 13.7067 3.33334 15.3467V17.72C3.33334 18.2267 3.86668 18.5467 4.34668 18.3867C5.09334 18.1334 5.88001 18 6.66668 18C10.7067 18 14 21.2934 14 25.3334C14 26.2934 13.7467 27.3467 13.3467 28.28C13.1333 28.76 13.4667 29.3334 13.9867 29.3334H23.6533C26.4133 29.3334 28.6667 27.08 28.6667 24.32V24.0667C28.6667 23.3334 28.0667 22.7334 27.3333 22.7334H26.1733C24.8933 22.7334 23.6667 21.9467 23.3333 20.7067C23.0667 19.6934 23.3867 18.7067 24.0533 18.0667C24.5467 17.56 25.2267 17.2667 25.9733 17.2667ZM18.6667 17H12C11.4533 17 11 16.5467 11 16C11 15.4534 11.4533 15 12 15H18.6667C19.2133 15 19.6667 15.4534 19.6667 16C19.6667 16.5467 19.2133 17 18.6667 17Z" fill="#C0A355"/>
</svg>
