<svg width="108" height="57" viewBox="0 0 108 57" fill="none" xmlns="http://www.w3.org/2000/svg">
<g clip-path="url(#clip0_59_5959)">
<path d="M27.135 -0.0269408H24.597C26.082 1.24273 27.027 3.13372 27.027 5.26785C27.027 9.13088 23.895 12.2375 20.061 12.2375C16.227 12.2375 13.068 9.10386 13.068 5.24083C13.068 3.13372 14.013 1.24273 15.498 -0.0539551H12.879C5.72398 -0.0539551 -0.0810242 5.7541 -0.0810242 12.9129V44.1143C-0.0810242 51.2731 5.72398 57.0811 12.879 57.0811H27.135C34.29 57.0811 40.095 51.2731 40.095 44.1143V12.9399C40.095 5.78112 34.29 -0.0269408 27.135 -0.0269408ZM23.598 43.1688C23.598 45.1138 22.005 46.7077 20.061 46.7077C18.117 46.7077 16.524 45.1138 16.524 43.1688V24.4479C16.524 22.3678 14.85 20.693 12.771 20.693H11.826C9.88198 20.693 8.28898 19.0991 8.28898 17.1541C8.28898 15.2091 9.88198 13.6152 11.826 13.6152H12.771C18.738 13.6152 23.598 18.4508 23.598 24.4479V43.1688ZM37.881 42.8176C37.881 45.6541 37.044 48.3825 35.451 50.7058C35.235 51.0029 34.911 51.165 34.587 51.165C34.371 51.165 34.182 51.111 33.993 50.9759C33.507 50.6517 33.372 49.9764 33.723 49.4901C35.073 47.5181 35.775 45.1949 35.775 42.7906V22.9081C35.775 22.3138 36.261 21.8546 36.828 21.8546C37.395 21.8546 37.881 22.3408 37.881 22.9081V42.8176ZM37.881 19.1261C37.881 19.7205 37.395 20.1797 36.828 20.1797C36.261 20.1797 35.775 19.6934 35.775 19.1261V17.6133C35.775 17.019 36.261 16.5598 36.828 16.5598C37.395 16.5598 37.881 17.046 37.881 17.6133V19.1261Z" fill="white"/>
<path d="M47.7094 28.9324V35.848H46.8184V28.9324H47.7094Z" fill="white"/>
<path d="M49.2754 35.848V28.9324H50.2474L52.4614 32.4442C52.9744 33.2546 53.3794 33.984 53.7034 34.6864H53.7304C53.6494 33.7679 53.6224 32.9305 53.6224 31.8499V28.9594H54.4594V35.875H53.5684L51.3814 32.3632C50.8954 31.6068 50.4364 30.7964 50.0854 30.067H50.0584C50.1124 30.9314 50.1394 31.7689 50.1394 32.9305V35.875H49.2754V35.848Z" fill="white"/>
<path d="M57.3484 29.6888H55.2424V28.9324H60.3724V29.6888H58.2664V35.848H57.3754V29.6888H57.3484Z" fill="white"/>
<path d="M64.6924 32.6063H61.9924V35.0916H64.9894V35.848H61.1014V28.9324H64.8274V29.6888H61.9924V31.8769H64.6924V32.6063Z" fill="white"/>
<path d="M66.1778 29.0132C66.6368 28.9322 67.2848 28.8782 67.8788 28.8782C68.8238 28.8782 69.4448 29.0403 69.8768 29.4455C70.2278 29.7426 70.4168 30.2289 70.4168 30.7692C70.4168 31.6877 69.8498 32.282 69.1208 32.5251V32.5521C69.6608 32.7412 69.9848 33.2275 70.1468 33.9568C70.3628 34.9294 70.5248 35.5777 70.6868 35.8478H69.7688C69.6608 35.6587 69.4988 35.0644 69.3098 34.2C69.0938 33.2545 68.7428 32.8763 67.9328 32.8493H67.0958V35.8478H66.2048V29.0132H66.1778ZM67.0688 32.1739H67.9868C68.9318 32.1739 69.5528 31.6606 69.5528 30.8502C69.5528 29.9587 68.9048 29.5805 67.9598 29.5535C67.5278 29.5535 67.2308 29.6076 67.0688 29.6346V32.1739Z" fill="white"/>
<path d="M76.5454 35.6049C76.2214 35.7669 75.5734 35.929 74.7094 35.929C72.7654 35.929 71.2804 34.6864 71.2804 32.4172C71.2804 30.256 72.7384 28.7703 74.8984 28.7703C75.7624 28.7703 76.3024 28.9594 76.5454 29.0674L76.3294 29.7968C75.9784 29.6347 75.5194 29.4996 74.9254 29.4996C73.3054 29.4996 72.2254 30.5262 72.2254 32.3632C72.2254 34.0651 73.1974 35.1456 74.8714 35.1456C75.4114 35.1456 75.9784 35.0376 76.3294 34.8485L76.5454 35.6049Z" fill="white"/>
<path d="M78.5707 28.9324V31.8229H81.9187V28.9324H82.8097V35.848H81.9187V32.6063H78.5707V35.848H77.6797V28.9324H78.5707Z" fill="white"/>
<path d="M85.482 33.6599L84.753 35.848H83.835L86.184 28.9324H87.264L89.613 35.848H88.668L87.939 33.6599H85.482ZM87.75 32.9575L87.075 30.9584C86.913 30.4992 86.832 30.094 86.724 29.6888H86.697C86.589 30.094 86.481 30.5262 86.346 30.9314L85.671 32.9305H87.75V32.9575Z" fill="white"/>
<path d="M90.6397 35.848V28.9324H91.6117L93.8257 32.4442C94.3387 33.2546 94.7437 33.984 95.0677 34.6864H95.0947C95.0137 33.7679 94.9867 32.9305 94.9867 31.8499V28.9594H95.8237V35.875H94.9327L92.7457 32.3632C92.2597 31.6068 91.8007 30.7964 91.4497 30.067H91.4227C91.4767 30.9314 91.5037 31.7689 91.5037 32.9305V35.875H90.6397V35.848Z" fill="white"/>
<path d="M102.654 35.5238C102.249 35.6589 101.466 35.902 100.521 35.902C99.4681 35.902 98.6041 35.6319 97.9291 34.9835C97.3351 34.4162 96.9571 33.4978 96.9571 32.4172C96.9571 30.3641 98.3881 28.8513 100.71 28.8513C101.52 28.8513 102.141 29.0134 102.438 29.1755L102.222 29.9049C101.844 29.7428 101.385 29.6077 100.683 29.6077C99.0091 29.6077 97.9021 30.6613 97.9021 32.3902C97.9021 34.1461 98.9551 35.1726 100.575 35.1726C101.169 35.1726 101.547 35.0916 101.763 34.9835V32.9305H100.359V32.2011H102.627V35.5238H102.654Z" fill="white"/>
<path d="M107.595 32.6063H104.895V35.0916H107.892V35.848H104.004V28.9324H107.73V29.6888H104.895V31.8769H107.595V32.6063Z" fill="white"/>
<path d="M36.6664 51.7323C36.9904 51.1109 37.4494 50.5977 37.8274 50.0034C37.9894 49.7602 38.1784 49.5711 38.4214 49.4631V16.1545H32.4004V52.0564H36.5584C36.5854 51.9484 36.6124 51.8403 36.6664 51.7323Z" fill="white"/>
<path d="M47.2496 20.0447H45.1436V19.2883H50.2736V20.0447H48.1676V26.204H47.2496V20.0447Z" fill="white"/>
<path d="M51.9203 19.2883V22.1789H55.2683V19.2883H56.1593V26.204H55.2683V22.9623H51.9203V26.204H51.0293V19.2883H51.9203Z" fill="white"/>
<path d="M61.2893 22.9623H58.5893V25.4476H61.5863V26.204H57.6983V19.2883H61.4243V20.0447H58.5893V22.2329H61.2893V22.9623Z" fill="white"/>
</g>
<defs>
<clipPath id="clip0_59_5959">
<rect width="108" height="57" fill="white"/>
</clipPath>
</defs>
</svg>
