<svg width="108" height="58" viewBox="0 0 108 58" fill="none" xmlns="http://www.w3.org/2000/svg">
<g clip-path="url(#clip0_59_4495)">
<path d="M27.135 0.472815H24.597C26.082 1.74248 27.027 3.63348 27.027 5.7676C27.027 9.63063 23.895 12.7373 20.061 12.7373C16.227 12.7373 13.068 9.60362 13.068 5.74059C13.068 3.63348 14.013 1.74248 15.498 0.445801H12.879C5.72398 0.445801 -0.0810242 6.25386 -0.0810242 13.4126V44.614C-0.0810242 51.7728 5.72398 57.5809 12.879 57.5809H27.135C34.29 57.5809 40.095 51.7728 40.095 44.614V13.4396C40.095 6.28087 34.29 0.472815 27.135 0.472815ZM23.598 43.6685C23.598 45.6136 22.005 47.2074 20.061 47.2074C18.117 47.2074 16.524 45.6136 16.524 43.6685V24.9477C16.524 22.8676 14.85 21.1927 12.771 21.1927H11.826C9.88198 21.1927 8.28898 19.5989 8.28898 17.6539C8.28898 15.7088 9.88198 14.115 11.826 14.115H12.771C18.738 14.115 23.598 18.9505 23.598 24.9477V43.6685ZM37.881 43.3174C37.881 46.1539 37.044 48.8823 35.451 51.2055C35.235 51.5027 34.911 51.6648 34.587 51.6648C34.371 51.6648 34.182 51.6107 33.993 51.4757C33.507 51.1515 33.372 50.4761 33.723 49.9899C35.073 48.0178 35.775 45.6946 35.775 43.2903V23.4079C35.775 22.8136 36.261 22.3543 36.828 22.3543C37.395 22.3543 37.881 22.8406 37.881 23.4079V43.3174ZM37.881 19.6259C37.881 20.2202 37.395 20.6794 36.828 20.6794C36.261 20.6794 35.775 20.1932 35.775 19.6259V18.1131C35.775 17.5188 36.261 17.0595 36.828 17.0595C37.395 17.0595 37.881 17.5458 37.881 18.1131V19.6259Z" fill="white"/>
<path d="M47.709 29.4321V36.3478H46.818V29.4321H47.709Z" fill="white"/>
<path d="M49.275 36.3478V29.4321H50.247L52.461 32.944C52.974 33.7544 53.379 34.4838 53.703 35.1862H53.73C53.649 34.2677 53.622 33.4302 53.622 32.3497V29.4591H54.459V36.3748H53.568L51.381 32.8629C50.895 32.1065 50.436 31.2961 50.085 30.5667H50.058C50.112 31.4312 50.139 32.2686 50.139 33.4302V36.3748H49.275V36.3478Z" fill="white"/>
<path d="M57.348 30.1885H55.242V29.4321H60.372V30.1885H58.266V36.3478H57.375V30.1885H57.348Z" fill="white"/>
<path d="M64.692 33.1061H61.992V35.5914H64.989V36.3478H61.101V29.4321H64.827V30.1885H61.992V32.3767H64.692V33.1061Z" fill="white"/>
<path d="M66.177 29.513C66.636 29.432 67.284 29.3779 67.878 29.3779C68.823 29.3779 69.444 29.54 69.876 29.9452C70.227 30.2424 70.416 30.7286 70.416 31.2689C70.416 32.1874 69.849 32.7817 69.12 33.0248V33.0519C69.66 33.241 69.984 33.7272 70.146 34.4566C70.362 35.4291 70.524 36.0775 70.686 36.3476H69.768C69.66 36.1585 69.498 35.5642 69.309 34.6997C69.093 33.7542 68.742 33.376 67.932 33.349H67.095V36.3476H66.204V29.513H66.177ZM67.068 32.6737H67.986C68.931 32.6737 69.552 32.1604 69.552 31.35C69.552 30.4585 68.904 30.0803 67.959 30.0533C67.527 30.0533 67.23 30.1073 67.068 30.1343V32.6737Z" fill="white"/>
<path d="M76.545 36.1046C76.221 36.2667 75.573 36.4288 74.709 36.4288C72.765 36.4288 71.28 35.1861 71.28 32.9169C71.28 30.7558 72.738 29.27 74.898 29.27C75.762 29.27 76.302 29.4591 76.545 29.5672L76.329 30.2966C75.978 30.1345 75.519 29.9994 74.925 29.9994C73.305 29.9994 72.225 31.0259 72.225 32.8629C72.225 34.5648 73.197 35.6454 74.871 35.6454C75.411 35.6454 75.978 35.5373 76.329 35.3482L76.545 36.1046Z" fill="white"/>
<path d="M78.57 29.4321V32.3227H81.918V29.4321H82.809V36.3478H81.918V33.1061H78.57V36.3478H77.679V29.4321H78.57Z" fill="white"/>
<path d="M85.482 34.1596L84.753 36.3478H83.835L86.184 29.4321H87.264L89.613 36.3478H88.668L87.939 34.1596H85.482ZM87.75 33.4572L87.075 31.4582C86.913 30.999 86.832 30.5937 86.724 30.1885H86.697C86.589 30.5937 86.481 31.026 86.346 31.4312L85.671 33.4302H87.75V33.4572Z" fill="white"/>
<path d="M90.639 36.3478V29.4321H91.611L93.825 32.944C94.338 33.7544 94.743 34.4838 95.067 35.1862H95.094C95.013 34.2677 94.986 33.4302 94.986 32.3497V29.4591H95.823V36.3748H94.932L92.745 32.8629C92.259 32.1065 91.8 31.2961 91.449 30.5667H91.422C91.476 31.4312 91.503 32.2686 91.503 33.4302V36.3748H90.639V36.3478Z" fill="white"/>
<path d="M102.654 36.0236C102.249 36.1587 101.466 36.4018 100.521 36.4018C99.468 36.4018 98.604 36.1316 97.929 35.4833C97.335 34.916 96.957 33.9975 96.957 32.917C96.957 30.8639 98.388 29.3511 100.71 29.3511C101.52 29.3511 102.141 29.5132 102.438 29.6752L102.222 30.4046C101.844 30.2425 101.385 30.1075 100.683 30.1075C99.009 30.1075 97.902 31.161 97.902 32.8899C97.902 34.6459 98.955 35.6724 100.575 35.6724C101.169 35.6724 101.547 35.5914 101.763 35.4833V33.4302H100.359V32.7008H102.627V36.0236H102.654Z" fill="white"/>
<path d="M107.595 33.1061H104.895V35.5914H107.892V36.3478H104.004V29.4321H107.73V30.1885H104.895V32.3767H107.595V33.1061Z" fill="white"/>
<path d="M36.666 52.232C36.99 51.6107 37.449 51.0974 37.827 50.5031C37.989 50.26 38.178 50.0709 38.421 49.9628V16.6543H32.4V52.5562H36.558C36.585 52.4481 36.612 52.3401 36.666 52.232Z" fill="white"/>
<path d="M47.25 20.5445H45.144V19.7881H50.274V20.5445H48.168V26.7037H47.25V20.5445Z" fill="white"/>
<path d="M51.921 19.7881V22.6786H55.269V19.7881H56.16V26.7037H55.269V23.462H51.921V26.7037H51.03V19.7881H51.921Z" fill="white"/>
<path d="M61.29 23.462H58.59V25.9473H61.587V26.7037H57.699V19.7881H61.425V20.5445H58.59V22.7326H61.29V23.462Z" fill="white"/>
</g>
<defs>
<clipPath id="clip0_59_4495">
<rect width="108" height="57" fill="white" transform="translate(0 0.5)"/>
</clipPath>
</defs>
</svg>
