<svg width="36" height="38" viewBox="0 0 36 38" fill="none" xmlns="http://www.w3.org/2000/svg">
<g filter="url(#filter0_d_2001_1935)">
<path d="M24.6667 29.9999C25.9553 29.9999 27 28.9552 27 27.6666C27 26.3779 25.9553 25.3333 24.6667 25.3333C23.378 25.3333 22.3333 26.3779 22.3333 27.6666C22.3333 28.9552 23.378 29.9999 24.6667 29.9999Z" fill="white"/>
<path d="M14 29.9999C15.2887 29.9999 16.3333 28.9552 16.3333 27.6666C16.3333 26.3779 15.2887 25.3333 14 25.3333C12.7113 25.3333 11.6667 26.3779 11.6667 27.6666C11.6667 28.9552 12.7113 29.9999 14 29.9999Z" fill="white"/>
<path d="M9.45332 5.25341L9.18666 8.52008C9.13332 9.14675 9.62666 9.66675 10.2533 9.66675H30.6667C31.2267 9.66675 31.6933 9.24008 31.7333 8.68008C31.9067 6.32008 30.1067 4.40008 27.7467 4.40008H11.36C11.2267 3.81341 10.96 3.25341 10.5467 2.78675C9.87999 2.08008 8.94666 1.66675 7.98666 1.66675H5.66666C5.11999 1.66675 4.66666 2.12008 4.66666 2.66675C4.66666 3.21341 5.11999 3.66675 5.66666 3.66675H7.98666C8.39999 3.66675 8.78666 3.84008 9.06666 4.13341C9.34666 4.44008 9.47999 4.84008 9.45332 5.25341Z" fill="white"/>
<path d="M30.3467 11.6667H9.89332C9.33332 11.6667 8.87999 12.0934 8.82666 12.6401L8.34666 18.4401C8.15999 20.7201 9.94666 22.6667 12.2267 22.6667H27.0533C29.0533 22.6667 30.8133 21.0267 30.96 19.0267L31.4 12.8001C31.4533 12.1867 30.9733 11.6667 30.3467 11.6667Z" fill="white"/>
</g>
<defs>
<filter id="filter0_d_2001_1935" x="-1" y="0" width="40" height="40" filterUnits="userSpaceOnUse" color-interpolation-filters="sRGB">
<feFlood flood-opacity="0" result="BackgroundImageFix"/>
<feColorMatrix in="SourceAlpha" type="matrix" values="0 0 0 0 0 0 0 0 0 0 0 0 0 0 0 0 0 0 127 0" result="hardAlpha"/>
<feOffset dy="4"/>
<feGaussianBlur stdDeviation="2"/>
<feComposite in2="hardAlpha" operator="out"/>
<feColorMatrix type="matrix" values="0 0 0 0 0 0 0 0 0 0 0 0 0 0 0 0 0 0 0.25 0"/>
<feBlend mode="normal" in2="BackgroundImageFix" result="effect1_dropShadow_2001_1935"/>
<feBlend mode="normal" in="SourceGraphic" in2="effect1_dropShadow_2001_1935" result="shape"/>
</filter>
</defs>
</svg>
