<svg width="32" height="32" viewBox="0 0 32 32" fill="none" xmlns="http://www.w3.org/2000/svg">
<path d="M29.3334 28.3334H28V13.3067C28 12.48 27.6267 11.7067 26.9734 11.2L25.3334 9.92004L25.3067 6.65338C25.3067 5.92004 24.7067 5.33338 23.9734 5.33338H19.4267L17.64 3.94671C16.68 3.18671 15.32 3.18671 14.36 3.94671L5.02669 11.2C4.37335 11.7067 4.00002 12.48 4.00002 13.2934L3.93335 28.3334H2.66669C2.12002 28.3334 1.66669 28.7867 1.66669 29.3334C1.66669 29.88 2.12002 30.3334 2.66669 30.3334H29.3334C29.88 30.3334 30.3334 29.88 30.3334 29.3334C30.3334 28.7867 29.88 28.3334 29.3334 28.3334ZM8.66669 17V15C8.66669 14.2667 9.26669 13.6667 10 13.6667H12.6667C13.4 13.6667 14 14.2667 14 15V17C14 17.7334 13.4 18.3334 12.6667 18.3334H10C9.26669 18.3334 8.66669 17.7334 8.66669 17ZM19.3334 28.3334H12.6667V24.6667C12.6667 23.56 13.56 22.6667 14.6667 22.6667H17.3334C18.44 22.6667 19.3334 23.56 19.3334 24.6667V28.3334ZM23.3334 17C23.3334 17.7334 22.7334 18.3334 22 18.3334H19.3334C18.6 18.3334 18 17.7334 18 17V15C18 14.2667 18.6 13.6667 19.3334 13.6667H22C22.7334 13.6667 23.3334 14.2667 23.3334 15V17Z" fill="white"/>
</svg>
