<svg width="32" height="32" viewBox="0 0 32 32" fill="none" xmlns="http://www.w3.org/2000/svg">
<path d="M15.92 2.94677L12.7067 10.4268H9.49332C8.95999 10.4268 8.43999 10.4668 7.93332 10.5734L9.26665 7.37343L9.31999 7.25343L9.39999 7.0401C9.43999 6.94677 9.46665 6.86677 9.50665 6.8001C11.0533 3.21343 12.7867 2.09343 15.92 2.94677Z" fill="white"/>
<path d="M24.9733 10.7868L24.9467 10.7734C24.1467 10.5468 23.3333 10.4268 22.5067 10.4268H14.16L17.16 3.45344L17.2 3.36011C17.3867 3.42677 17.5867 3.52011 17.7867 3.58677L20.7333 4.82677C22.3733 5.50677 23.52 6.21344 24.2267 7.06677C24.3467 7.22677 24.4533 7.37344 24.56 7.54677C24.68 7.73344 24.7733 7.92011 24.8267 8.12011C24.88 8.24011 24.92 8.34677 24.9467 8.46677C25.1467 9.14677 25.16 9.92011 24.9733 10.7868Z" fill="white"/>
<path d="M16.6933 23.5468H17.0267C17.4267 23.5468 17.76 23.1868 17.76 22.7468C17.76 22.1868 17.6 22.1068 17.2533 21.9734L16.6933 21.7734V23.5468Z" fill="white"/>
<path d="M24.3867 12.6934C23.7867 12.5201 23.16 12.4268 22.5067 12.4268H9.49333C8.58666 12.4268 7.73333 12.6001 6.93333 12.9468C4.61333 13.9468 2.98666 16.2534 2.98666 18.9334V21.5334C2.98666 21.8534 3.01333 22.1601 3.05333 22.4801C3.34666 26.7201 5.61333 28.9868 9.85333 29.2668C10.16 29.3068 10.4667 29.3334 10.8 29.3334H21.2C26.1333 29.3334 28.7333 26.9868 28.9867 22.3201C29 22.0668 29.0133 21.8001 29.0133 21.5334V18.9334C29.0133 15.9868 27.0533 13.5068 24.3867 12.6934ZM17.7067 20.6668C18.32 20.8801 19.1467 21.3334 19.1467 22.7468C19.1467 23.9601 18.2 24.9334 17.0267 24.9334H16.6933V25.2268C16.6933 25.6134 16.3867 25.9201 16 25.9201C15.6133 25.9201 15.3067 25.6134 15.3067 25.2268V24.9334H15.1867C13.9067 24.9334 12.8533 23.8534 12.8533 22.5201C12.8533 22.1334 13.16 21.8268 13.5467 21.8268C13.9333 21.8268 14.24 22.1334 14.24 22.5201C14.24 23.0801 14.6667 23.5468 15.1867 23.5468H15.3067V21.2934L14.2933 20.9334C13.68 20.7201 12.8533 20.2668 12.8533 18.8534C12.8533 17.6401 13.8 16.6668 14.9733 16.6668H15.3067V16.3734C15.3067 15.9868 15.6133 15.6801 16 15.6801C16.3867 15.6801 16.6933 15.9868 16.6933 16.3734V16.6668H16.8133C18.0933 16.6668 19.1467 17.7468 19.1467 19.0801C19.1467 19.4668 18.84 19.7734 18.4533 19.7734C18.0667 19.7734 17.76 19.4668 17.76 19.0801C17.76 18.5201 17.3333 18.0534 16.8133 18.0534H16.6933V20.3068L17.7067 20.6668Z" fill="white"/>
<path d="M14.24 18.8532C14.24 19.4132 14.4 19.4932 14.7467 19.6266L15.3067 19.8266V18.0532H14.9733C14.56 18.0532 14.24 18.4132 14.24 18.8532Z" fill="white"/>
</svg>
